<?xml version="1.0" encoding="utf-8"?>
<!-- Generator: Adobe Illustrator 14.0.0, SVG Export Plug-In . SVG Version: 6.00 Build 43363)  -->
<!DOCTYPE svg PUBLIC "-//W3C//DTD SVG 1.1//EN" "http://www.w3.org/Graphics/SVG/1.1/DTD/svg11.dtd">
<svg version="1.1" id="Layer_1" xmlns="http://www.w3.org/2000/svg" xmlns:xlink="http://www.w3.org/1999/xlink" x="0px" y="0px"
	 width="495.479px" height="100px" viewBox="0 0 495.479 100" enable-background="new 0 0 495.479 100" xml:space="preserve">
<g>
	<g>
		<path fill-rule="evenodd" clip-rule="evenodd" d="M248.442,55.967c-1.503-2.09-3.535-3.129-6.122-3.129
			c-2.783,0-4.935,0.995-6.425,2.975c-1.487,1.983-2.236,4.723-2.236,8.206v20.418h-10.154V33.137h5.071
			c1.405,0,2.587,0.496,3.593,1.49c0.993,0.993,1.49,2.19,1.49,3.591v11.767c1.79-2.975,4.326-4.862,7.617-5.663
			c3.286-0.785,6.416-0.593,9.407,0.598c2.784,1.197,5.129,3.077,7.009,5.658c1.896,2.604,2.834,6.172,2.834,10.739v23.118h-9.994
			V63.865c0-1.483-0.131-2.862-0.373-4.092C249.904,58.523,249.336,57.253,248.442,55.967 M213.547,72.228H221
			c-1.093,4.174-3.18,7.353-6.26,9.537c-3.077,2.294-6.958,3.44-11.629,3.44c-5.675,0-10.088-1.847-13.271-5.523
			c-3.179-3.572-4.771-8.688-4.771-15.357c0-6.359,1.541-11.322,4.619-14.897c3.179-3.676,7.611-5.523,13.271-5.523
			c5.968,0,10.587,1.796,13.867,5.37c1.782,2.187,3.08,4.715,3.868,7.607H210.26c-0.491-1.007-0.988-1.757-1.484-2.253
			c-1.299-1.4-3.129-2.097-5.522-2.097c-2.177,0-3.97,0.696-5.358,2.085c-1.79,1.998-2.684,5.28-2.684,9.858
			c0,4.58,0.894,7.815,2.684,9.706c1.286,1.593,3.219,2.396,5.815,2.396c1.676,0,3.129-0.355,4.314-1.058
			c0.306-0.088,0.57-0.265,0.823-0.523c0.243-0.237,0.522-0.521,0.817-0.823c0.203-0.295,0.595-0.702,1.195-1.199
			C211.457,72.477,212.35,72.228,213.547,72.228 M157.171,60.546h15.205c-0.19-2.671-0.892-4.658-2.089-5.941
			c-1.287-1.389-3.128-2.072-5.512-2.072c-2.184,0-3.977,0.684-5.362,2.072C158.012,55.987,157.271,57.978,157.171,60.546
			 M175.23,72.228h7.458c-1.093,4.174-3.183,7.353-6.259,9.537c-3.081,2.294-6.963,3.44-11.634,3.44
			c-5.657,0-10.102-1.847-13.28-5.523c-3.193-3.572-4.783-8.688-4.783-15.357c0-6.359,1.539-11.322,4.633-14.897
			c3.19-3.676,7.62-5.523,13.28-5.523c5.966,0,10.584,1.779,13.867,5.354c3.183,3.665,4.771,8.781,4.771,15.336v1.029v0.597
			c0,0.496-0.051,0.844-0.153,1.044h-25.788c0.102,3.102,0.841,5.404,2.242,6.909c1.282,1.602,3.229,2.404,5.81,2.404
			c1.695,0,3.132-0.355,4.326-1.058c0.293-0.088,0.575-0.265,0.819-0.523c0.25-0.237,0.52-0.521,0.823-0.823
			c0.091-0.295,0.473-0.702,1.107-1.199C173.12,72.477,174.048,72.228,175.23,72.228 M145.932,84.437
			c-3.281,0.204-6.833,0.154-10.661-0.152c-3.829-0.293-5.751-2.732-5.751-7.301V33.137h5.384c1.281,0,2.428,0.496,3.433,1.49
			c0.993,0.993,1.487,2.179,1.487,3.574v6.697h6.107v2.095c0,1.491-0.494,2.71-1.491,3.653c-0.988,0.954-2.185,1.424-3.574,1.424
			h-1.043v22.049c0,1.693,0.995,2.529,2.98,2.529h3.127V84.437z M116.459,84.437H106.03l-6.122-28.357l-6.109,28.357H83.355
			l-10.877-39.69h10.14l6.26,27.454l5.661-27.454h10.584l5.37,27.454l5.521-23.869c0.598-2.394,2.19-3.585,4.774-3.585h6.564
			L116.459,84.437z M47.136,60.546H62.34c-0.19-2.671-0.891-4.658-2.086-5.941c-1.285-1.389-3.132-2.072-5.51-2.072
			c-2.186,0-3.98,0.684-5.366,2.072C47.977,55.987,47.238,57.978,47.136,60.546 M65.369,72.228h7.455
			c-1.092,4.174-3.179,7.353-6.258,9.537c-3.079,2.294-6.959,3.44-11.63,3.44c-5.661,0-10.101-1.847-13.282-5.523
			c-3.193-3.572-4.784-8.688-4.784-15.357c0-6.359,1.542-11.322,4.632-14.897c3.194-3.676,7.622-5.523,13.282-5.523
			c5.969,0,10.585,1.779,13.869,5.354c3.18,3.665,4.771,8.781,4.771,15.336v1.029v0.597c0,0.496-0.053,0.844-0.152,1.044H47.481
			c0.102,3.102,0.841,5.404,2.242,6.909c1.282,1.602,3.229,2.404,5.812,2.404c1.695,0,3.13-0.355,4.328-1.058
			c0.291-0.088,0.57-0.265,0.813-0.523c0.252-0.237,0.521-0.521,0.826-0.823c0.09-0.295,0.473-0.702,1.108-1.199
			C63.257,72.477,64.188,72.228,65.369,72.228 M34.579,84.437h-5.227c-1.491,0-2.713-0.469-3.652-1.409
			c-0.956-0.957-1.425-2.163-1.425-3.667V59.083c0-2.385-0.711-4.122-2.151-5.218c-1.437-1.096-3.054-1.643-4.834-1.643
			c-1.781,0-3.359,0.547-4.746,1.643c-1.388,1.096-2.086,2.833-2.086,5.218v25.354H0V61.193c0-6.759,1.767-11.286,5.291-13.562
			c3.526-2.293,7.43-3.524,11.707-3.728c4.363,0,8.395,1.146,12.073,3.422c3.677,2.293,5.508,6.906,5.508,13.867V84.437z"/>
	</g>
	<g>
		<defs>
			<path id="SVGID_1_" d="M197.005,33.438c0,2.012,1.666,3.641,3.721,3.641c2.052,0,3.717-1.629,3.717-3.641
				c0-2.01-1.665-3.632-3.717-3.632C198.671,29.806,197.005,31.428,197.005,33.438 M153.4,34.98c0,3.401,2.812,6.16,6.284,6.16
				s6.287-2.759,6.287-6.16c0-3.396-2.815-6.155-6.287-6.155S153.4,31.584,153.4,34.98 M142.76,30.224
				c0,2.009,1.66,3.645,3.717,3.645c2.053,0,3.716-1.636,3.716-3.645c0-2.006-1.663-3.641-3.716-3.641
				C144.42,26.583,142.76,28.218,142.76,30.224 M213.914,29.503c0,2.012,1.664,3.646,3.719,3.646c2.052,0,3.715-1.634,3.715-3.646
				c0-2.004-1.663-3.639-3.715-3.639C215.578,25.864,213.914,27.499,213.914,29.503 M189.68,24.955c0,2.004,1.669,3.639,3.72,3.639
				c2.054,0,3.715-1.635,3.715-3.639c0-2.01-1.661-3.64-3.715-3.64C191.349,21.315,189.68,22.945,189.68,24.955 M163.569,22.555
				c0,2.011,1.665,3.646,3.713,3.646c2.054,0,3.721-1.635,3.721-3.646c0-2.005-1.667-3.64-3.721-3.64
				C165.234,18.916,163.569,20.55,163.569,22.555 M151.502,22.283c0,2.013,1.665,3.646,3.72,3.646c2.053,0,3.715-1.633,3.715-3.646
				c0-2.01-1.662-3.638-3.715-3.638C153.167,18.645,151.502,20.272,151.502,22.283 M199.879,21.837c0,3.4,2.816,6.161,6.289,6.161
				c3.471,0,6.283-2.76,6.283-6.161c0-3.396-2.812-6.155-6.283-6.155C202.695,15.683,199.879,18.441,199.879,21.837 M215.282,18.83
				c0,2.011,1.667,3.639,3.721,3.639c2.049,0,3.715-1.628,3.715-3.639c0-2.01-1.666-3.64-3.715-3.64
				C216.949,15.19,215.282,16.82,215.282,18.83 M191.598,14.344c0,2.011,1.67,3.639,3.721,3.639s3.715-1.628,3.715-3.639
				s-1.664-3.64-3.715-3.64S191.598,12.333,191.598,14.344 M173.802,16.841c0,3.402,2.811,6.155,6.284,6.155
				c3.473,0,6.285-2.753,6.285-6.155c0-3.395-2.812-6.153-6.285-6.153C176.612,10.688,173.802,13.446,173.802,16.841
				 M163.637,11.469c0,2.012,1.663,3.639,3.714,3.639c2.056,0,3.719-1.627,3.719-3.639c0-2.01-1.663-3.639-3.719-3.639
				C165.3,7.83,163.637,9.459,163.637,11.469 M208.438,10.132c0,2.016,1.663,3.644,3.719,3.644c2.05,0,3.713-1.628,3.713-3.644
				c0-2.005-1.663-3.641-3.713-3.641C210.102,6.491,208.438,8.126,208.438,10.132 M183.694,5.344c0,2.01,1.662,3.639,3.717,3.639
				c2.052,0,3.714-1.629,3.714-3.639c0-2.011-1.662-3.639-3.714-3.639C185.356,1.705,183.694,3.333,183.694,5.344 M172.469,3.593
				c0,2.019,1.663,3.645,3.718,3.645c2.048,0,3.715-1.626,3.715-3.645c0-2.01-1.667-3.639-3.715-3.639
				C174.132-0.046,172.469,1.583,172.469,3.593"/>
		</defs>
		<clipPath id="SVGID_2_">
			<use xlink:href="#SVGID_1_"  overflow="visible"/>
		</clipPath>
		
			<linearGradient id="SVGID_3_" gradientUnits="userSpaceOnUse" x1="-749.668" y1="586.3965" x2="-749.4956" y2="586.3965" gradientTransform="matrix(463.917 0 0 -463.917 347926.8125 272059.6875)">
			<stop  offset="0" style="stop-color:#08A650"/>
			<stop  offset="1" style="stop-color:#2BACE2"/>
		</linearGradient>
		<rect x="142.76" y="-0.046" clip-path="url(#SVGID_2_)" fill="url(#SVGID_3_)" width="79.958" height="41.186"/>
	</g>
	<g>
		<polygon points="280.622,85.205 279.243,85.205 279.243,33.137 280.622,33.137 280.622,85.205 		"/>
	</g>
	<g>
		<g>
			<path d="M300.173,98.329c0.388,0.09,0.924,0.222,1.632,0.401c1.109,0.283,2.437,0.571,3.944,0.852
				c1.492,0.277,3.121,0.418,4.84,0.418c6.079,0,10.356-1.28,12.712-3.808c2.368-2.541,3.569-5.687,3.569-9.347V55.252
				c0-3.04-1.303-5.235-3.983-6.709c-2.777-1.526-6.231-2.299-10.265-2.299c-5.126,0-9.502,1.498-13.008,4.452
				c-3.472,2.927-5.258,8.33-5.308,16.058c0,5.95,1.458,10.653,4.33,13.973c2.845,3.293,7.156,4.964,12.812,4.964
				c1.294,0,2.941-0.22,4.896-0.648c1.965-0.436,3.76-0.965,5.335-1.573l0.939-0.364v3.899c0,2.633-0.887,4.825-2.636,6.518
				c-1.767,1.709-5.045,2.541-10.021,2.541c-1.916,0-3.686-0.162-5.259-0.482c-1.318-0.27-2.84-0.639-4.531-1.099V98.329
				L300.173,98.329z M311.449,81.905c-4.278,0-7.49-1.396-9.547-4.148c-2.011-2.69-3.029-6.395-3.029-11.01
				c0-5.067,0.998-9.145,2.968-12.112c2.03-3.059,5.815-4.609,11.25-4.609c2.8,0,5.069,0.404,6.747,1.201
				c1.846,0.877,2.781,2.495,2.781,4.807v22.849l-0.35,0.197c-1.608,0.91-3.388,1.618-5.295,2.102
				C315.076,81.661,313.219,81.905,311.449,81.905L311.449,81.905z"/>
		</g>
		<g>
			<path d="M340.761,84.516h4.253V32.009h-4.253V84.516L340.761,84.516z"/>
		</g>
		<g>
			<path d="M374.091,46.165c-5.556,0-9.841,1.646-12.741,4.893c-2.92,3.269-4.399,8.232-4.399,14.753
				c0,6.422,1.456,11.404,4.332,14.804c2.847,3.367,7.209,5.075,12.966,5.075c5.446,0,9.718-1.75,12.694-5.198
				c3.003-3.478,4.525-8.416,4.525-14.681c0-6.115-1.448-10.981-4.303-14.462C384.346,47.909,379.946,46.165,374.091,46.165
				L374.091,46.165z M374.17,81.905c-8.605,0-12.969-5.416-12.969-16.095c0-10.526,4.363-15.862,12.969-15.862
				c4.589,0,7.959,1.409,10.018,4.188c2.008,2.72,3.029,6.645,3.029,11.674C387.217,76.489,382.826,81.905,374.17,81.905
				L374.17,81.905z"/>
		</g>
		<g>
			<path d="M403.403,30.367v48.191c0,2.345,1.153,4.061,3.528,5.248c2.499,1.249,6.341,1.884,11.424,1.884
				c4.76,0,8.924-1.511,12.375-4.486c3.424-2.951,5.185-8.343,5.235-16.023c0-5.949-1.457-10.651-4.329-13.974
				c-2.849-3.293-7.158-4.963-12.813-4.963c-1.295,0-2.942,0.218-4.895,0.648c-1.968,0.435-3.762,0.964-5.336,1.574l-0.938,0.363
				V30.367H403.403L403.403,30.367z M417.573,81.905c-2.564,0-4.818-0.301-6.699-0.892c-2.661-0.836-3.219-2.521-3.219-3.786V53.051
				l0.351-0.198c1.612-0.913,3.392-1.62,5.293-2.102c1.896-0.48,3.756-0.725,5.524-0.725c4.278,0,7.489,1.396,9.547,4.147
				c2.011,2.692,3.031,6.396,3.031,11.01c0,5.064-0.972,9.139-2.886,12.105C426.538,80.353,422.855,81.905,417.573,81.905
				L417.573,81.905z"/>
		</g>
		<g>
			<path d="M460.039,61.884c-4.3,0-7.704,1.013-10.12,3.01c-2.376,1.965-3.582,5.192-3.582,9.596c0,4.059,1.339,6.86,4.093,8.565
				c2.82,1.749,6.264,2.635,10.234,2.635c5.304,0,9.504-0.628,12.483-1.865c2.819-1.169,4.188-3.431,4.188-6.909V57.988
				c0-3.832-1.193-6.789-3.549-8.779c-2.39-2.02-5.727-3.044-9.917-3.044c-2.597,0-5.245,0.285-7.872,0.845
				c-2.41,0.516-4.369,1.208-5.827,2.06v3.898c1.409-0.912,3.057-1.629,4.916-2.136c2.342-0.638,4.69-0.962,6.984-0.962
				c3.568,0,6.305,0.793,8.132,2.355c1.859,1.59,2.804,3.977,2.804,7.094v5.814l-1.038-0.604
				C468.962,62.773,464.946,61.884,460.039,61.884L460.039,61.884z M461.994,82.062c-3.085,0-5.755-0.649-7.936-1.933
				c-2.301-1.352-3.469-3.536-3.469-6.498c0-2.625,0.993-4.657,2.951-6.037c1.883-1.33,4.568-2.006,7.982-2.006
				c2.073,0,4.092,0.203,6.007,0.602c1.92,0.4,3.63,0.958,5.085,1.659l0.392,0.186v9.193c0,1.962-1,3.336-2.894,3.977
				C468.41,81.781,465.754,82.062,461.994,82.062L461.994,82.062z"/>
		</g>
		<g>
			<path d="M491.227,84.516h4.253V32.009h-4.253V84.516L491.227,84.516z"/>
		</g>
	</g>
</g>
</svg>
